<?xml version="1.0" standalone="no"?>
<!DOCTYPE svg PUBLIC "-//W3C//DTD SVG 20010904//EN"
 "http://www.w3.org/TR/2001/REC-SVG-20010904/DTD/svg10.dtd">
<svg version="1.0" xmlns="http://www.w3.org/2000/svg"
 width="512.000000pt" height="512.000000pt" viewBox="0 0 512.000000 512.000000"
 preserveAspectRatio="xMidYMid meet">
<metadata>
Created by potrace 1.11, written by Peter Selinger 2001-2013
</metadata>
<g transform="translate(0.000000,512.000000) scale(0.100000,-0.100000)"
fill="#000000" stroke="none">
<path d="M2730 5111 c-127 -42 -200 -126 -395 -457 -83 -142 -149 -225 -199
-251 -56 -30 -156 -20 -406 42 -261 65 -380 78 -470 52 -142 -42 -205 -167
-180 -356 6 -47 34 -176 61 -286 62 -247 71 -344 40 -408 -27 -55 -95 -110
-256 -205 -205 -121 -286 -175 -346 -233 -71 -69 -109 -143 -109 -215 0 -146
94 -249 382 -418 54 -31 98 -60 98 -64 -1 -4 -21 -27 -46 -52 -58 -58 -126
-159 -170 -256 -36 -78 -84 -245 -84 -293 0 -25 -6 -29 -68 -49 -254 -82 -466
-305 -548 -577 -24 -79 -27 -108 -28 -230 0 -116 3 -153 22 -218 69 -243 213
-424 422 -535 139 -74 261 -102 441 -102 127 0 153 13 153 75 0 63 -20 71
-186 77 -120 5 -156 10 -223 32 -363 123 -566 518 -452 879 77 242 280 428
518 477 31 6 64 19 72 28 9 10 20 55 26 109 36 295 211 544 467 664 113 53
182 70 310 76 241 11 448 -70 615 -244 74 -76 111 -129 158 -220 50 -99 79
-105 172 -34 134 101 260 145 414 145 120 0 200 -20 306 -75 138 -72 265 -214
319 -356 38 -98 54 -223 42 -311 -14 -98 -3 -121 75 -156 89 -41 182 -123 230
-205 129 -215 98 -474 -76 -651 -75 -76 -177 -131 -275 -149 -40 -7 -412 -11
-1138 -11 l-1079 0 -24 -25 c-32 -31 -32 -69 0 -101 l25 -24 1122 2 1123 3 84
29 c415 145 595 633 370 999 -16 27 -28 51 -26 53 2 3 28 -1 58 -8 73 -16 225
-16 273 1 49 17 111 73 139 125 20 36 22 56 21 171 -1 123 -4 141 -54 335 -52
202 -71 335 -56 395 15 59 113 139 306 250 359 206 458 330 406 506 -32 110
-122 189 -408 360 -215 128 -292 192 -304 254 -13 69 4 188 56 395 85 335 81
470 -16 566 -102 103 -270 98 -679 -21 -110 -32 -215 -41 -274 -25 -59 16
-133 92 -195 200 -194 340 -268 441 -365 494 -56 30 -144 43 -191 27z m136
-172 c48 -29 115 -123 234 -330 168 -291 252 -366 422 -376 93 -6 167 8 428
78 126 33 173 41 252 42 94 2 98 1 125 -26 27 -27 28 -31 27 -130 -1 -88 -9
-130 -52 -299 -125 -484 -96 -562 304 -800 289 -171 359 -231 359 -308 0 -79
-75 -145 -335 -299 -301 -179 -367 -246 -391 -393 -13 -81 1 -177 63 -423 74
-296 75 -409 6 -446 -28 -15 -138 -14 -214 1 -33 6 -121 28 -196 47 l-138 36
0 66 c0 85 -15 174 -44 266 l-23 73 79 78 c157 154 274 340 342 544 198 593
-18 1245 -530 1597 -43 29 -85 53 -94 53 -26 0 -67 -36 -74 -66 -9 -36 12 -65
86 -115 86 -59 220 -189 288 -280 109 -147 193 -341 225 -523 20 -115 20 -329
0 -437 -45 -244 -152 -456 -320 -636 l-73 -78 -81 87 c-227 242 -526 330 -827
243 -85 -25 -165 -61 -216 -96 -14 -11 -28 -19 -31 -19 -3 0 -24 28 -48 63
-104 153 -223 257 -384 337 -123 61 -229 90 -362 97 l-101 6 -6 31 c-25 143
-14 332 29 500 119 467 520 833 1000 912 119 19 354 14 450 -10 82 -21 105
-20 132 6 24 23 30 66 13 98 -32 60 -411 93 -631 55 -280 -48 -537 -183 -745
-390 -207 -206 -328 -432 -390 -725 -17 -85 -25 -332 -14 -444 l5 -49 -60 -17
c-87 -25 -163 -57 -220 -92 l-49 -31 -51 29 c-212 118 -348 211 -385 264 -74
103 -11 185 268 350 276 164 352 224 404 322 21 39 23 55 22 173 -1 123 -4
140 -53 330 -61 230 -76 367 -47 422 36 70 134 69 431 -5 316 -79 411 -87 513
-42 102 45 160 115 320 385 184 310 248 363 358 294z"/>
</g>
</svg>
